<?xml version="1.0" encoding="UTF-8"?>
<mxfile modified="2020-10-27T23:52:15.224Z" host="app.diagrams.net" agent="5.0 (X11; Linux x86_64) AppleWebKit/537.36 (KHTML, like Gecko) Chrome/85.0.4183.121 Safari/537.36" etag="vzPMAWXuYfjCo2eCGfy1" version="13.8.5" type="google">
  <diagram id="Ht1M8jgEwFfnCIfOTk4-" name="Page-1">
    <mxGraphModel dx="1422" dy="754" grid="1" gridSize="10" guides="1" tooltips="1" connect="1" arrows="1" fold="1" page="1" pageScale="1" pageWidth="827" pageHeight="1169" math="0" shadow="0">
      <root>
        <mxCell id="0" />
        <mxCell id="1" parent="0" />
        <mxCell id="cQxu3DuaxZ4heUAZuwcB-9" value="Application Namespace" style="points=[[0,0],[0.25,0],[0.5,0],[0.75,0],[1,0],[1,0.25],[1,0.5],[1,0.75],[1,1],[0.75,1],[0.5,1],[0.25,1],[0,1],[0,0.75],[0,0.5],[0,0.25]];outlineConnect=0;gradientColor=none;html=1;whiteSpace=wrap;fontSize=12;fontStyle=0;shape=mxgraph.aws4.group;grIcon=mxgraph.aws4.group_on_premise;strokeColor=#5A6C86;fillColor=none;verticalAlign=top;align=left;spacingLeft=30;fontColor=#5A6C86;dashed=0;" vertex="1" parent="1">
          <mxGeometry x="653.5" y="383" width="360" height="445" as="geometry" />
        </mxCell>
        <mxCell id="UEzPUAAOIrF-is8g5C7q-1" value="K8GB Namespace" style="points=[[0,0],[0.25,0],[0.5,0],[0.75,0],[1,0],[1,0.25],[1,0.5],[1,0.75],[1,1],[0.75,1],[0.5,1],[0.25,1],[0,1],[0,0.75],[0,0.5],[0,0.25]];outlineConnect=0;gradientColor=none;html=1;whiteSpace=wrap;fontSize=12;fontStyle=0;shape=mxgraph.aws4.group;grIcon=mxgraph.aws4.group_corporate_data_center;strokeColor=#5A6C86;fillColor=none;verticalAlign=top;align=left;spacingLeft=30;fontColor=#5A6C86;dashed=0;" parent="1" vertex="1">
          <mxGeometry x="8" y="170" width="578.5" height="729" as="geometry" />
        </mxCell>
        <mxCell id="-QjtrjUzRDEMRZ5MF8oH-9" value="1" style="rounded=1;whiteSpace=wrap;html=1;fillColor=#007CBD;strokeColor=none;fontColor=#FFFFFF;fontStyle=1;fontSize=22;" parent="1" vertex="1">
          <mxGeometry x="362" y="225" width="40" height="38" as="geometry" />
        </mxCell>
        <mxCell id="-QjtrjUzRDEMRZ5MF8oH-47" value="K8GB Components" style="text;html=1;resizable=0;points=[];autosize=1;align=left;verticalAlign=top;spacingTop=-4;fontSize=30;fontStyle=1" parent="1" vertex="1">
          <mxGeometry x="12" y="65.5" width="290" height="40" as="geometry" />
        </mxCell>
        <mxCell id="-QjtrjUzRDEMRZ5MF8oH-48" value="Internal k8gb components and relation between them" style="text;html=1;resizable=0;points=[];autosize=1;align=left;verticalAlign=top;spacingTop=-4;fontSize=16" parent="1" vertex="1">
          <mxGeometry x="12" y="115.5" width="390" height="20" as="geometry" />
        </mxCell>
        <mxCell id="SCVMTBWpLvtzJIhz15lM-1" value="" style="line;strokeWidth=2;html=1;fontSize=14;" parent="1" vertex="1">
          <mxGeometry x="8" y="140.5" width="1060" height="10" as="geometry" />
        </mxCell>
        <mxCell id="7OVz4w7n9kzEPWy-4BBC-3" value="" style="rounded=0;whiteSpace=wrap;html=1;fillColor=#EAEDED;fontSize=22;fontColor=#FFFFFF;strokeColor=none;labelBackgroundColor=none;" parent="1" vertex="1">
          <mxGeometry x="1106.5" y="52" width="539" height="1068" as="geometry" />
        </mxCell>
        <mxCell id="7OVz4w7n9kzEPWy-4BBC-4" value="1" style="rounded=1;whiteSpace=wrap;html=1;fillColor=#007CBD;strokeColor=none;fontColor=#FFFFFF;fontStyle=1;fontSize=22;labelBackgroundColor=none;" parent="1" vertex="1">
          <mxGeometry x="1124.5" y="64" width="40" height="38" as="geometry" />
        </mxCell>
        <mxCell id="7OVz4w7n9kzEPWy-4BBC-5" value="2" style="rounded=1;whiteSpace=wrap;html=1;fillColor=#007CBD;strokeColor=none;fontColor=#FFFFFF;fontStyle=1;fontSize=22;labelBackgroundColor=none;" parent="1" vertex="1">
          <mxGeometry x="1123" y="150.5" width="40" height="38" as="geometry" />
        </mxCell>
        <mxCell id="7OVz4w7n9kzEPWy-4BBC-6" value="3" style="rounded=1;whiteSpace=wrap;html=1;fillColor=#007CBD;strokeColor=none;fontColor=#FFFFFF;fontStyle=1;fontSize=22;labelBackgroundColor=none;" parent="1" vertex="1">
          <mxGeometry x="1123" y="231.5" width="40" height="38" as="geometry" />
        </mxCell>
        <mxCell id="7OVz4w7n9kzEPWy-4BBC-7" value="4" style="rounded=1;whiteSpace=wrap;html=1;fillColor=#007CBD;strokeColor=none;fontColor=#FFFFFF;fontStyle=1;fontSize=22;labelBackgroundColor=none;" parent="1" vertex="1">
          <mxGeometry x="1123" y="318.25" width="40" height="38" as="geometry" />
        </mxCell>
        <mxCell id="7OVz4w7n9kzEPWy-4BBC-8" value="5" style="rounded=1;whiteSpace=wrap;html=1;fillColor=#007CBD;strokeColor=none;fontColor=#FFFFFF;fontStyle=1;fontSize=22;labelBackgroundColor=none;" parent="1" vertex="1">
          <mxGeometry x="1123" y="406.25" width="40" height="38" as="geometry" />
        </mxCell>
        <mxCell id="7OVz4w7n9kzEPWy-4BBC-9" value="6" style="rounded=1;whiteSpace=wrap;html=1;fillColor=#007CBD;strokeColor=none;fontColor=#FFFFFF;fontStyle=1;fontSize=22;labelBackgroundColor=none;" parent="1" vertex="1">
          <mxGeometry x="1123" y="514.25" width="40" height="38" as="geometry" />
        </mxCell>
        <mxCell id="7OVz4w7n9kzEPWy-4BBC-10" value="7" style="rounded=1;whiteSpace=wrap;html=1;fillColor=#007CBD;strokeColor=none;fontColor=#FFFFFF;fontStyle=1;fontSize=22;labelBackgroundColor=none;" parent="1" vertex="1">
          <mxGeometry x="1123" y="606.75" width="40" height="38" as="geometry" />
        </mxCell>
        <mxCell id="7OVz4w7n9kzEPWy-4BBC-11" value="8" style="rounded=1;whiteSpace=wrap;html=1;fillColor=#007CBD;strokeColor=none;fontColor=#FFFFFF;fontStyle=1;fontSize=22;labelBackgroundColor=none;" parent="1" vertex="1">
          <mxGeometry x="1123" y="693.5" width="40" height="38" as="geometry" />
        </mxCell>
        <mxCell id="7OVz4w7n9kzEPWy-4BBC-13" value="ETC Operator creates and automatically maintains dedicated ETCD cluster" style="text;html=1;align=left;verticalAlign=top;spacingTop=-4;fontSize=14;labelBackgroundColor=none;whiteSpace=wrap;" parent="1" vertex="1">
          <mxGeometry x="1176" y="63.5" width="449" height="46.5" as="geometry" />
        </mxCell>
        <mxCell id="7OVz4w7n9kzEPWy-4BBC-14" value="&lt;span&gt;ETCD cluster acts as a backend storage for CoreDNS instances&lt;/span&gt;" style="text;html=1;align=left;verticalAlign=top;spacingTop=-4;fontSize=14;labelBackgroundColor=none;whiteSpace=wrap;" parent="1" vertex="1">
          <mxGeometry x="1175" y="151" width="450" height="59" as="geometry" />
        </mxCell>
        <mxCell id="7OVz4w7n9kzEPWy-4BBC-15" value="&lt;span&gt;k8fb controller watches all namespaces for Gslb custom resource creation and reacts accordingly&lt;/span&gt;" style="text;html=1;align=left;verticalAlign=top;spacingTop=-4;fontSize=14;labelBackgroundColor=none;whiteSpace=wrap;" parent="1" vertex="1">
          <mxGeometry x="1175" y="230" width="450" height="50" as="geometry" />
        </mxCell>
        <mxCell id="7OVz4w7n9kzEPWy-4BBC-16" value="&lt;span&gt;Gslb Ingress is getting automatically created from Gslb CR spec.&lt;br&gt;k8gb controller is transitively aware of application pod health status through association of Gslb Ingress with Application Service&lt;br&gt;&lt;/span&gt;" style="text;html=1;align=left;verticalAlign=top;spacingTop=-4;fontSize=14;labelBackgroundColor=none;whiteSpace=wrap;" parent="1" vertex="1">
          <mxGeometry x="1175" y="318.75" width="450" height="71.25" as="geometry" />
        </mxCell>
        <mxCell id="7OVz4w7n9kzEPWy-4BBC-17" value="&lt;span&gt;k8gb controller creates DNSEndpoint Custom Resource which is populated with information from Gslb Ingress status - specifically desired application FQDN and active IP addresses to dynamically compose A record.&lt;/span&gt;" style="text;html=1;align=left;verticalAlign=top;spacingTop=-4;fontSize=14;labelBackgroundColor=none;whiteSpace=wrap;" parent="1" vertex="1">
          <mxGeometry x="1174.5" y="406.75" width="449" height="114" as="geometry" />
        </mxCell>
        <mxCell id="7OVz4w7n9kzEPWy-4BBC-18" value="External DNS instance with enabled CRD source reacts to DNSEndpoint creation and reads data from the CR object" style="text;html=1;align=left;verticalAlign=top;spacingTop=-4;fontSize=14;labelBackgroundColor=none;whiteSpace=wrap;" parent="1" vertex="1">
          <mxGeometry x="1173.5" y="515.75" width="450" height="118" as="geometry" />
        </mxCell>
        <mxCell id="7OVz4w7n9kzEPWy-4BBC-19" value="&lt;span&gt;External DNS populates ETCD database with information from DNSEndpoint&lt;/span&gt;" style="text;html=1;align=left;verticalAlign=top;spacingTop=-4;fontSize=14;labelBackgroundColor=none;whiteSpace=wrap;" parent="1" vertex="1">
          <mxGeometry x="1174" y="607.25" width="449" height="72.75" as="geometry" />
        </mxCell>
        <mxCell id="7OVz4w7n9kzEPWy-4BBC-20" value="CoreDNS reads data from ETCD backend and becomes ready to serve external DNS request" style="text;html=1;align=left;verticalAlign=top;spacingTop=-4;fontSize=14;labelBackgroundColor=none;whiteSpace=wrap;" parent="1" vertex="1">
          <mxGeometry x="1173.5" y="695" width="449" height="42.5" as="geometry" />
        </mxCell>
        <mxCell id="UEzPUAAOIrF-is8g5C7q-10" value="8" style="rounded=1;whiteSpace=wrap;html=1;fillColor=#007CBD;strokeColor=none;fontColor=#FFFFFF;fontStyle=1;fontSize=22;" parent="1" vertex="1">
          <mxGeometry x="40" y="693.5" width="40" height="38" as="geometry" />
        </mxCell>
        <mxCell id="UEzPUAAOIrF-is8g5C7q-19" value="3" style="rounded=1;whiteSpace=wrap;html=1;fillColor=#007CBD;strokeColor=none;fontColor=#FFFFFF;fontStyle=1;fontSize=22;" parent="1" vertex="1">
          <mxGeometry x="600" y="473.5" width="40" height="38" as="geometry" />
        </mxCell>
        <mxCell id="UEzPUAAOIrF-is8g5C7q-20" value="4" style="rounded=1;whiteSpace=wrap;html=1;fillColor=#007CBD;strokeColor=none;fontColor=#FFFFFF;fontStyle=1;fontSize=22;" parent="1" vertex="1">
          <mxGeometry x="800" y="586.5" width="40" height="38" as="geometry" />
        </mxCell>
        <mxCell id="UEzPUAAOIrF-is8g5C7q-21" value="5" style="rounded=1;whiteSpace=wrap;html=1;fillColor=#007CBD;strokeColor=none;fontColor=#FFFFFF;fontStyle=1;fontSize=22;" parent="1" vertex="1">
          <mxGeometry x="460" y="530" width="40" height="38" as="geometry" />
        </mxCell>
        <mxCell id="cQxu3DuaxZ4heUAZuwcB-68" style="edgeStyle=orthogonalEdgeStyle;rounded=0;orthogonalLoop=1;jettySize=auto;html=1;startArrow=none;startFill=0;endArrow=none;endFill=0;strokeColor=#000000;fontSize=15;fontColor=#000000;exitX=0.218;exitY=0.485;exitDx=0;exitDy=0;exitPerimeter=0;" edge="1" parent="1" source="cQxu3DuaxZ4heUAZuwcB-13">
          <mxGeometry relative="1" as="geometry">
            <mxPoint x="510" y="620" as="targetPoint" />
            <Array as="points">
              <mxPoint x="694" y="524" />
              <mxPoint x="628" y="524" />
              <mxPoint x="628" y="620" />
            </Array>
          </mxGeometry>
        </mxCell>
        <mxCell id="cQxu3DuaxZ4heUAZuwcB-69" style="edgeStyle=orthogonalEdgeStyle;rounded=0;orthogonalLoop=1;jettySize=auto;html=1;startArrow=none;startFill=0;endArrow=classic;endFill=1;strokeColor=#000000;fontSize=15;fontColor=#000000;" edge="1" parent="1" source="cQxu3DuaxZ4heUAZuwcB-13" target="cQxu3DuaxZ4heUAZuwcB-21">
          <mxGeometry relative="1" as="geometry" />
        </mxCell>
        <mxCell id="cQxu3DuaxZ4heUAZuwcB-13" value="Gslb CRD" style="dashed=0;whitespace=wrap;fillColor=#2875E2;strokeColor=#ffffff;points=[[0.005,0.63,0],[0.1,0.2,0],[0.9,0.2,0],[0.5,0,0],[0.995,0.63,0],[0.72,0.99,0],[0.5,1,0],[0.28,0.99,0]];shape=mxgraph.kubernetes.icon;prIcon=crd;verticalAlign=top;html=1;labelPosition=center;verticalLabelPosition=bottom;align=center;fontSize=15;" vertex="1" parent="1">
          <mxGeometry x="670" y="490" width="110" height="68" as="geometry" />
        </mxCell>
        <mxCell id="cQxu3DuaxZ4heUAZuwcB-15" value="" style="html=1;dashed=0;whitespace=wrap;fillColor=#2875E2;strokeColor=#ffffff;points=[[0.005,0.63,0],[0.1,0.2,0],[0.9,0.2,0],[0.5,0,0],[0.995,0.63,0],[0.72,0.99,0],[0.5,1,0],[0.28,0.99,0]];shape=mxgraph.kubernetes.icon;prIcon=etcd" vertex="1" parent="1">
          <mxGeometry x="52" y="248.5" width="50" height="48" as="geometry" />
        </mxCell>
        <mxCell id="cQxu3DuaxZ4heUAZuwcB-16" value="" style="html=1;dashed=0;whitespace=wrap;fillColor=#2875E2;strokeColor=#ffffff;points=[[0.005,0.63,0],[0.1,0.2,0],[0.9,0.2,0],[0.5,0,0],[0.995,0.63,0],[0.72,0.99,0],[0.5,1,0],[0.28,0.99,0]];shape=mxgraph.kubernetes.icon;prIcon=etcd" vertex="1" parent="1">
          <mxGeometry x="132" y="248.5" width="50" height="48" as="geometry" />
        </mxCell>
        <mxCell id="cQxu3DuaxZ4heUAZuwcB-17" value="" style="html=1;dashed=0;whitespace=wrap;fillColor=#2875E2;strokeColor=#ffffff;points=[[0.005,0.63,0],[0.1,0.2,0],[0.9,0.2,0],[0.5,0,0],[0.995,0.63,0],[0.72,0.99,0],[0.5,1,0],[0.28,0.99,0]];shape=mxgraph.kubernetes.icon;prIcon=etcd" vertex="1" parent="1">
          <mxGeometry x="212" y="248.5" width="50" height="48" as="geometry" />
        </mxCell>
        <mxCell id="cQxu3DuaxZ4heUAZuwcB-35" style="edgeStyle=orthogonalEdgeStyle;rounded=0;orthogonalLoop=1;jettySize=auto;html=1;entryX=0.5;entryY=0;entryDx=0;entryDy=0;entryPerimeter=0;fontSize=15;fontColor=#000000;" edge="1" parent="1" source="cQxu3DuaxZ4heUAZuwcB-18" target="cQxu3DuaxZ4heUAZuwcB-30">
          <mxGeometry relative="1" as="geometry">
            <Array as="points">
              <mxPoint x="99" y="760" />
            </Array>
          </mxGeometry>
        </mxCell>
        <mxCell id="cQxu3DuaxZ4heUAZuwcB-18" value="ETCD Cluster" style="fillColor=none;strokeColor=#147EBA;dashed=1;verticalAlign=top;fontStyle=0;fontColor=#147EBA;html=1;" vertex="1" parent="1">
          <mxGeometry x="28" y="212.5" width="258" height="120" as="geometry" />
        </mxCell>
        <mxCell id="cQxu3DuaxZ4heUAZuwcB-20" style="edgeStyle=orthogonalEdgeStyle;rounded=0;orthogonalLoop=1;jettySize=auto;html=1;exitX=0.5;exitY=1;exitDx=0;exitDy=0;" edge="1" parent="1" source="cQxu3DuaxZ4heUAZuwcB-18" target="cQxu3DuaxZ4heUAZuwcB-18">
          <mxGeometry relative="1" as="geometry" />
        </mxCell>
        <mxCell id="cQxu3DuaxZ4heUAZuwcB-70" style="edgeStyle=orthogonalEdgeStyle;rounded=0;orthogonalLoop=1;jettySize=auto;html=1;entryX=0.286;entryY=0.468;entryDx=0;entryDy=0;entryPerimeter=0;startArrow=none;startFill=0;endArrow=classic;endFill=1;strokeColor=#000000;fontSize=15;fontColor=#000000;exitX=0.781;exitY=0.506;exitDx=0;exitDy=0;exitPerimeter=0;" edge="1" parent="1" source="cQxu3DuaxZ4heUAZuwcB-21" target="cQxu3DuaxZ4heUAZuwcB-28">
          <mxGeometry relative="1" as="geometry" />
        </mxCell>
        <mxCell id="cQxu3DuaxZ4heUAZuwcB-21" value="Gslb Ingress" style="html=1;dashed=0;whitespace=wrap;fillColor=#2875E2;strokeColor=#ffffff;points=[[0.005,0.63,0],[0.1,0.2,0],[0.9,0.2,0],[0.5,0,0],[0.995,0.63,0],[0.72,0.99,0],[0.5,1,0],[0.28,0.99,0]];shape=mxgraph.kubernetes.icon;prIcon=ing;verticalAlign=top;labelPosition=center;verticalLabelPosition=bottom;align=center;fontSize=15;" vertex="1" parent="1">
          <mxGeometry x="670.5" y="630" width="109.5" height="63.25" as="geometry" />
        </mxCell>
        <mxCell id="cQxu3DuaxZ4heUAZuwcB-39" style="edgeStyle=orthogonalEdgeStyle;rounded=0;orthogonalLoop=1;jettySize=auto;html=1;endArrow=oval;endFill=1;strokeColor=#000000;fontSize=15;fontColor=#000000;exitX=0.823;exitY=0.585;exitDx=0;exitDy=0;exitPerimeter=0;" edge="1" parent="1" source="cQxu3DuaxZ4heUAZuwcB-25" target="cQxu3DuaxZ4heUAZuwcB-32">
          <mxGeometry relative="1" as="geometry" />
        </mxCell>
        <mxCell id="cQxu3DuaxZ4heUAZuwcB-25" value="k8gb Controller" style="html=1;dashed=0;whitespace=wrap;fillColor=#2875E2;strokeColor=#ffffff;points=[[0.005,0.63,0],[0.1,0.2,0],[0.9,0.2,0],[0.5,0,0],[0.995,0.63,0],[0.72,0.99,0],[0.5,1,0],[0.28,0.99,0]];shape=mxgraph.kubernetes.icon;prIcon=api;fontSize=19;verticalAlign=top;labelPosition=center;verticalLabelPosition=bottom;align=center;" vertex="1" parent="1">
          <mxGeometry x="254.15" y="548" width="195.7" height="125.25" as="geometry" />
        </mxCell>
        <mxCell id="cQxu3DuaxZ4heUAZuwcB-71" style="edgeStyle=orthogonalEdgeStyle;rounded=0;orthogonalLoop=1;jettySize=auto;html=1;entryX=0.5;entryY=1;entryDx=0;entryDy=0;startArrow=none;startFill=0;endArrow=classic;endFill=1;strokeColor=#000000;fontSize=15;fontColor=#000000;" edge="1" parent="1" source="cQxu3DuaxZ4heUAZuwcB-28" target="cQxu3DuaxZ4heUAZuwcB-64">
          <mxGeometry relative="1" as="geometry" />
        </mxCell>
        <mxCell id="cQxu3DuaxZ4heUAZuwcB-28" value="Application Service" style="html=1;dashed=0;whitespace=wrap;fillColor=#2875E2;strokeColor=#ffffff;points=[[0.005,0.63,0],[0.1,0.2,0],[0.9,0.2,0],[0.5,0,0],[0.995,0.63,0],[0.72,0.99,0],[0.5,1,0],[0.28,0.99,0]];shape=mxgraph.kubernetes.icon;prIcon=svc;fontSize=15;labelPosition=center;verticalLabelPosition=bottom;align=center;verticalAlign=top;" vertex="1" parent="1">
          <mxGeometry x="876.26" y="633.75" width="83" height="59.5" as="geometry" />
        </mxCell>
        <mxCell id="cQxu3DuaxZ4heUAZuwcB-30" value="CoreDNS" style="verticalLabelPosition=bottom;html=1;fillColor=#A153A0;strokeColor=#ffffff;verticalAlign=top;align=center;points=[[0,0.5,0],[0.125,0.25,0],[0.25,0,0],[0.5,0,0],[0.75,0,0],[0.875,0.25,0],[1,0.5,0],[0.875,0.75,0],[0.75,1,0],[0.5,1,0],[0.125,0.75,0]];pointerEvents=1;shape=mxgraph.cisco_safe.compositeIcon;bgIcon=mxgraph.cisco_safe.design.blank_device;resIcon=mxgraph.cisco_safe.design.secure_dns_2;fontSize=19;" vertex="1" parent="1">
          <mxGeometry x="60" y="768.5" width="78" height="68" as="geometry" />
        </mxCell>
        <mxCell id="cQxu3DuaxZ4heUAZuwcB-42" style="edgeStyle=orthogonalEdgeStyle;rounded=0;orthogonalLoop=1;jettySize=auto;html=1;endArrow=classic;endFill=1;strokeColor=#000000;fontSize=15;fontColor=#000000;exitX=0.175;exitY=0.5;exitDx=0;exitDy=0;exitPerimeter=0;" edge="1" parent="1" source="cQxu3DuaxZ4heUAZuwcB-31" target="cQxu3DuaxZ4heUAZuwcB-18">
          <mxGeometry relative="1" as="geometry">
            <Array as="points">
              <mxPoint x="157" y="456" />
            </Array>
          </mxGeometry>
        </mxCell>
        <mxCell id="cQxu3DuaxZ4heUAZuwcB-31" value="external-dns for CoreDNS" style="html=1;fillColor=#5184F3;strokeColor=none;verticalAlign=top;labelPosition=center;verticalLabelPosition=bottom;align=center;spacingTop=-6;fontSize=15;fontStyle=0;shape=mxgraph.gcp2.hexIcon;prIcon=cloud_dns;" vertex="1" parent="1">
          <mxGeometry x="280" y="400" width="144" height="111.5" as="geometry" />
        </mxCell>
        <mxCell id="cQxu3DuaxZ4heUAZuwcB-40" style="edgeStyle=orthogonalEdgeStyle;rounded=0;orthogonalLoop=1;jettySize=auto;html=1;entryX=0.825;entryY=0.5;entryDx=0;entryDy=0;entryPerimeter=0;endArrow=classic;endFill=1;strokeColor=#000000;fontSize=15;fontColor=#000000;" edge="1" parent="1" source="cQxu3DuaxZ4heUAZuwcB-32" target="cQxu3DuaxZ4heUAZuwcB-31">
          <mxGeometry relative="1" as="geometry" />
        </mxCell>
        <mxCell id="cQxu3DuaxZ4heUAZuwcB-32" value="DNSEndpoint CRD" style="shadow=0;dashed=0;html=1;strokeColor=none;fillColor=#4495D1;labelPosition=center;verticalLabelPosition=bottom;verticalAlign=top;align=center;outlineConnect=0;shape=mxgraph.veeam.dns;fontSize=15;fontColor=#000000;" vertex="1" parent="1">
          <mxGeometry x="485.5" y="426.5" width="65.4" height="58.5" as="geometry" />
        </mxCell>
        <mxCell id="cQxu3DuaxZ4heUAZuwcB-56" style="edgeStyle=orthogonalEdgeStyle;rounded=0;orthogonalLoop=1;jettySize=auto;html=1;entryX=0.5;entryY=1;entryDx=0;entryDy=0;entryPerimeter=0;endArrow=classic;endFill=1;strokeColor=#000000;fontSize=15;fontColor=#000000;startArrow=classic;startFill=1;" edge="1" parent="1" source="cQxu3DuaxZ4heUAZuwcB-34" target="cQxu3DuaxZ4heUAZuwcB-30">
          <mxGeometry relative="1" as="geometry" />
        </mxCell>
        <mxCell id="cQxu3DuaxZ4heUAZuwcB-34" value="AWS Route 53" style="outlineConnect=0;dashed=0;verticalLabelPosition=bottom;verticalAlign=top;align=center;html=1;shape=mxgraph.aws3.route_53;fillColor=#F58536;gradientColor=none;fontSize=15;fontColor=#000000;" vertex="1" parent="1">
          <mxGeometry x="322.75" y="1011.5" width="70.5" height="85.5" as="geometry" />
        </mxCell>
        <mxCell id="cQxu3DuaxZ4heUAZuwcB-38" style="edgeStyle=orthogonalEdgeStyle;rounded=0;orthogonalLoop=1;jettySize=auto;html=1;entryX=1;entryY=0.5;entryDx=0;entryDy=0;fontSize=15;fontColor=#000000;endArrow=oval;endFill=1;exitX=0;exitY=0.557;exitDx=0;exitDy=0;exitPerimeter=0;" edge="1" parent="1" source="cQxu3DuaxZ4heUAZuwcB-36" target="cQxu3DuaxZ4heUAZuwcB-18">
          <mxGeometry relative="1" as="geometry">
            <Array as="points">
              <mxPoint x="460" y="273" />
              <mxPoint x="373" y="273" />
            </Array>
          </mxGeometry>
        </mxCell>
        <mxCell id="cQxu3DuaxZ4heUAZuwcB-36" value="ETCD Operator" style="html=1;dashed=0;whitespace=wrap;fillColor=#2875E2;strokeColor=#ffffff;points=[[0.005,0.63,0],[0.1,0.2,0],[0.9,0.2,0],[0.5,0,0],[0.995,0.63,0],[0.72,0.99,0],[0.5,1,0],[0.28,0.99,0]];shape=mxgraph.kubernetes.icon;prIcon=master;fontSize=15;fontColor=#000000;labelPosition=center;verticalLabelPosition=bottom;align=center;verticalAlign=top;" vertex="1" parent="1">
          <mxGeometry x="470" y="224" width="75.7" height="91.5" as="geometry" />
        </mxCell>
        <mxCell id="cQxu3DuaxZ4heUAZuwcB-52" style="edgeStyle=orthogonalEdgeStyle;rounded=0;orthogonalLoop=1;jettySize=auto;html=1;entryX=0.825;entryY=0.5;entryDx=0;entryDy=0;entryPerimeter=0;endArrow=classic;endFill=1;strokeColor=#000000;fontSize=15;fontColor=#000000;" edge="1" parent="1" source="cQxu3DuaxZ4heUAZuwcB-44" target="cQxu3DuaxZ4heUAZuwcB-47">
          <mxGeometry relative="1" as="geometry" />
        </mxCell>
        <mxCell id="cQxu3DuaxZ4heUAZuwcB-44" value="DNSEndpoint CRD" style="shadow=0;dashed=0;html=1;strokeColor=none;fillColor=#4495D1;labelPosition=center;verticalLabelPosition=bottom;verticalAlign=top;align=center;outlineConnect=0;shape=mxgraph.veeam.dns;fontSize=15;fontColor=#000000;" vertex="1" parent="1">
          <mxGeometry x="485.5" y="743" width="65.4" height="58.5" as="geometry" />
        </mxCell>
        <mxCell id="cQxu3DuaxZ4heUAZuwcB-53" style="edgeStyle=orthogonalEdgeStyle;rounded=0;orthogonalLoop=1;jettySize=auto;html=1;entryX=0.5;entryY=0;entryDx=0;entryDy=0;entryPerimeter=0;endArrow=classic;endFill=1;strokeColor=#000000;fontSize=15;fontColor=#000000;exitX=0.5;exitY=0.84;exitDx=0;exitDy=0;exitPerimeter=0;" edge="1" parent="1" source="cQxu3DuaxZ4heUAZuwcB-47" target="cQxu3DuaxZ4heUAZuwcB-34">
          <mxGeometry relative="1" as="geometry" />
        </mxCell>
        <mxCell id="cQxu3DuaxZ4heUAZuwcB-47" value="external-dns for Route53" style="html=1;fillColor=#5184F3;strokeColor=none;verticalAlign=top;labelPosition=center;verticalLabelPosition=bottom;align=center;spacingTop=-6;fontSize=15;fontStyle=0;shape=mxgraph.gcp2.hexIcon;prIcon=cloud_dns;" vertex="1" parent="1">
          <mxGeometry x="286" y="716.5" width="144" height="111.5" as="geometry" />
        </mxCell>
        <mxCell id="cQxu3DuaxZ4heUAZuwcB-49" style="edgeStyle=orthogonalEdgeStyle;rounded=0;orthogonalLoop=1;jettySize=auto;html=1;endArrow=oval;endFill=1;strokeColor=#000000;fontSize=15;fontColor=#000000;" edge="1" parent="1" target="cQxu3DuaxZ4heUAZuwcB-44">
          <mxGeometry relative="1" as="geometry">
            <mxPoint x="414" y="620" as="sourcePoint" />
            <mxPoint x="516.99" y="485" as="targetPoint" />
            <Array as="points">
              <mxPoint x="518" y="620" />
            </Array>
          </mxGeometry>
        </mxCell>
        <mxCell id="cQxu3DuaxZ4heUAZuwcB-58" value="" style="html=1;dashed=0;whitespace=wrap;fillColor=#2875E2;strokeColor=#ffffff;points=[[0.005,0.63,0],[0.1,0.2,0],[0.9,0.2,0],[0.5,0,0],[0.995,0.63,0],[0.72,0.99,0],[0.5,1,0],[0.28,0.99,0]];shape=mxgraph.kubernetes.icon;prIcon=pod;fontSize=15;fontColor=#000000;" vertex="1" parent="1">
          <mxGeometry x="864.13" y="493.5" width="50" height="48" as="geometry" />
        </mxCell>
        <mxCell id="cQxu3DuaxZ4heUAZuwcB-59" value="" style="html=1;dashed=0;whitespace=wrap;fillColor=#2875E2;strokeColor=#ffffff;points=[[0.005,0.63,0],[0.1,0.2,0],[0.9,0.2,0],[0.5,0,0],[0.995,0.63,0],[0.72,0.99,0],[0.5,1,0],[0.28,0.99,0]];shape=mxgraph.kubernetes.icon;prIcon=pod;fontSize=15;fontColor=#000000;" vertex="1" parent="1">
          <mxGeometry x="921.38" y="435.5" width="50" height="48" as="geometry" />
        </mxCell>
        <mxCell id="cQxu3DuaxZ4heUAZuwcB-60" value="" style="html=1;dashed=0;whitespace=wrap;fillColor=#2875E2;strokeColor=#ffffff;points=[[0.005,0.63,0],[0.1,0.2,0],[0.9,0.2,0],[0.5,0,0],[0.995,0.63,0],[0.72,0.99,0],[0.5,1,0],[0.28,0.99,0]];shape=mxgraph.kubernetes.icon;prIcon=pod;fontSize=15;fontColor=#000000;" vertex="1" parent="1">
          <mxGeometry x="866.38" y="435.5" width="50" height="48" as="geometry" />
        </mxCell>
        <mxCell id="cQxu3DuaxZ4heUAZuwcB-61" value="" style="html=1;dashed=0;whitespace=wrap;fillColor=#2875E2;strokeColor=#ffffff;points=[[0.005,0.63,0],[0.1,0.2,0],[0.9,0.2,0],[0.5,0,0],[0.995,0.63,0],[0.72,0.99,0],[0.5,1,0],[0.28,0.99,0]];shape=mxgraph.kubernetes.icon;prIcon=pod;fontSize=15;fontColor=#000000;" vertex="1" parent="1">
          <mxGeometry x="921.38" y="492.5" width="50" height="48" as="geometry" />
        </mxCell>
        <mxCell id="cQxu3DuaxZ4heUAZuwcB-64" value="Application Pods" style="fillColor=none;strokeColor=#147EBA;dashed=1;verticalAlign=top;fontStyle=0;fontColor=#147EBA;html=1;fontSize=15;" vertex="1" parent="1">
          <mxGeometry x="828.63" y="406.25" width="178.25" height="151.75" as="geometry" />
        </mxCell>
        <mxCell id="UEzPUAAOIrF-is8g5C7q-22" value="6" style="rounded=1;whiteSpace=wrap;html=1;fillColor=#007CBD;strokeColor=none;fontColor=#FFFFFF;fontStyle=1;fontSize=22;" parent="1" vertex="1">
          <mxGeometry x="420" y="406.25" width="40" height="38" as="geometry" />
        </mxCell>
        <mxCell id="UEzPUAAOIrF-is8g5C7q-23" value="7" style="rounded=1;whiteSpace=wrap;html=1;fillColor=#007CBD;strokeColor=none;fontColor=#FFFFFF;fontStyle=1;fontSize=22;" parent="1" vertex="1">
          <mxGeometry x="212" y="400" width="40" height="38" as="geometry" />
        </mxCell>
        <mxCell id="cQxu3DuaxZ4heUAZuwcB-74" value="2" style="rounded=1;whiteSpace=wrap;html=1;fillColor=#007CBD;strokeColor=none;fontColor=#FFFFFF;fontStyle=1;fontSize=22;" vertex="1" parent="1">
          <mxGeometry x="40" y="360" width="40" height="38" as="geometry" />
        </mxCell>
        <mxCell id="cQxu3DuaxZ4heUAZuwcB-75" value="9" style="rounded=1;whiteSpace=wrap;html=1;fillColor=#007CBD;strokeColor=none;fontColor=#FFFFFF;fontStyle=1;fontSize=22;" vertex="1" parent="1">
          <mxGeometry x="530" y="693.5" width="40" height="38" as="geometry" />
        </mxCell>
        <mxCell id="cQxu3DuaxZ4heUAZuwcB-77" value="9" style="rounded=1;whiteSpace=wrap;html=1;fillColor=#007CBD;strokeColor=none;fontColor=#FFFFFF;fontStyle=1;fontSize=22;labelBackgroundColor=none;" vertex="1" parent="1">
          <mxGeometry x="1123" y="768.5" width="40" height="38" as="geometry" />
        </mxCell>
        <mxCell id="cQxu3DuaxZ4heUAZuwcB-78" value="k8gb controller also creates special DNSEndpoint to configure DNS zone delegation in external DNS provider" style="text;html=1;align=left;verticalAlign=top;spacingTop=-4;fontSize=14;labelBackgroundColor=none;whiteSpace=wrap;" vertex="1" parent="1">
          <mxGeometry x="1173.5" y="770" width="449" height="42.5" as="geometry" />
        </mxCell>
        <mxCell id="cQxu3DuaxZ4heUAZuwcB-79" value="10" style="rounded=1;whiteSpace=wrap;html=1;fillColor=#007CBD;strokeColor=none;fontColor=#FFFFFF;fontStyle=1;fontSize=22;" vertex="1" parent="1">
          <mxGeometry x="424" y="716.5" width="40" height="38" as="geometry" />
        </mxCell>
        <mxCell id="cQxu3DuaxZ4heUAZuwcB-81" value="10" style="rounded=1;whiteSpace=wrap;html=1;fillColor=#007CBD;strokeColor=none;fontColor=#FFFFFF;fontStyle=1;fontSize=22;labelBackgroundColor=none;" vertex="1" parent="1">
          <mxGeometry x="1123" y="850" width="40" height="38" as="geometry" />
        </mxCell>
        <mxCell id="cQxu3DuaxZ4heUAZuwcB-82" value="Dedicated External DNS instance which is configured to talk to Route 53 is reading data from DNSEndpoint CR" style="text;html=1;align=left;verticalAlign=top;spacingTop=-4;fontSize=14;labelBackgroundColor=none;whiteSpace=wrap;" vertex="1" parent="1">
          <mxGeometry x="1173.5" y="851.5" width="449" height="42.5" as="geometry" />
        </mxCell>
        <mxCell id="cQxu3DuaxZ4heUAZuwcB-83" value="11" style="rounded=1;whiteSpace=wrap;html=1;fillColor=#007CBD;strokeColor=none;fontColor=#FFFFFF;fontStyle=1;fontSize=22;" vertex="1" parent="1">
          <mxGeometry x="390" y="940" width="40" height="38" as="geometry" />
        </mxCell>
        <mxCell id="cQxu3DuaxZ4heUAZuwcB-84" value="11" style="rounded=1;whiteSpace=wrap;html=1;fillColor=#007CBD;strokeColor=none;fontColor=#FFFFFF;fontStyle=1;fontSize=22;labelBackgroundColor=none;" vertex="1" parent="1">
          <mxGeometry x="1123" y="940" width="40" height="38" as="geometry" />
        </mxCell>
        <mxCell id="cQxu3DuaxZ4heUAZuwcB-85" value="External DNS for Route53 makes API calls to configure NS and glue A records in Route53" style="text;html=1;align=left;verticalAlign=top;spacingTop=-4;fontSize=14;labelBackgroundColor=none;whiteSpace=wrap;" vertex="1" parent="1">
          <mxGeometry x="1173.5" y="941.5" width="449" height="42.5" as="geometry" />
        </mxCell>
        <mxCell id="cQxu3DuaxZ4heUAZuwcB-86" value="12" style="rounded=1;whiteSpace=wrap;html=1;fillColor=#007CBD;strokeColor=none;fontColor=#FFFFFF;fontStyle=1;fontSize=22;" vertex="1" parent="1">
          <mxGeometry x="160" y="1000" width="40" height="38" as="geometry" />
        </mxCell>
        <mxCell id="cQxu3DuaxZ4heUAZuwcB-87" value="12" style="rounded=1;whiteSpace=wrap;html=1;fillColor=#007CBD;strokeColor=none;fontColor=#FFFFFF;fontStyle=1;fontSize=22;labelBackgroundColor=none;" vertex="1" parent="1">
          <mxGeometry x="1123" y="1032.25" width="40" height="38" as="geometry" />
        </mxCell>
        <mxCell id="cQxu3DuaxZ4heUAZuwcB-88" value="Zone delegation is configured on Route53 and k8gb is now authoritative for the application DNS zone. CoreDNS is serving external DNS requests with dynamically constructed DNS responses" style="text;html=1;align=left;verticalAlign=top;spacingTop=-4;fontSize=14;labelBackgroundColor=none;whiteSpace=wrap;" vertex="1" parent="1">
          <mxGeometry x="1173.5" y="1033.75" width="449" height="42.5" as="geometry" />
        </mxCell>
      </root>
    </mxGraphModel>
  </diagram>
</mxfile>
